HIERARCHY
ROOT joint_0
{
	OFFSET 0.000000 0.000000 0.000000
	CHANNELS 6 Xposition Yposition Zposition Zrotation Yrotation Xrotation 
	JOINT joint_1
	{
		OFFSET 11.612000 -0.419000 106.198000
		CHANNELS 3 Zrotation Yrotation Xrotation
		JOINT joint_2
		{
			OFFSET -1.708000 -1.022000 97.564090
			CHANNELS 3 Zrotation Yrotation Xrotation
			JOINT joint_3
			{
				OFFSET -4.121000 -1.538000 97.375000
				CHANNELS 3 Zrotation Yrotation Xrotation
				JOINT joint_4
				{
					OFFSET 5.442000 -2.123000 132.795900
					CHANNELS 3 Zrotation Yrotation Xrotation
					JOINT joint_5
					{
						OFFSET 21.935000 0.195000 82.975100
						CHANNELS 3 Zrotation Yrotation Xrotation
						End Site
						{
							OFFSET 0.000000 0.000000 0.000000
						}
					}
				}
				JOINT joint_6
				{
					OFFSET 4.262000 -30.048000 73.899900
					CHANNELS 3 Zrotation Yrotation Xrotation
					JOINT joint_7
					{
						OFFSET 9.731000 -136.810010 -21.963010
						CHANNELS 3 Zrotation Yrotation Xrotation
						JOINT joint_8
						{
							OFFSET 33.360000 -35.709000 -267.597900
							CHANNELS 3 Zrotation Yrotation Xrotation
							JOINT joint_9
							{
								OFFSET 36.156000 -29.759000 -240.558040
								CHANNELS 3 Zrotation Yrotation Xrotation
								End Site
								{
									OFFSET 0.000000 0.000000 0.000000
								}
							}
						}
					}
				}
				JOINT joint_10
				{
					OFFSET 2.027000 27.734000 74.914920
					CHANNELS 3 Zrotation Yrotation Xrotation
					JOINT joint_11
					{
						OFFSET -5.183000 136.784000 -23.604980
						CHANNELS 3 Zrotation Yrotation Xrotation
						JOINT joint_12
						{
							OFFSET 29.806000 37.229000 -267.809940
							CHANNELS 3 Zrotation Yrotation Xrotation
							JOINT joint_13
							{
								OFFSET 36.890000 46.524990 -237.772030
								CHANNELS 3 Zrotation Yrotation Xrotation
								End Site
								{
									OFFSET 0.000000 0.000000 0.000000
								}
							}
						}
					}
				}
			}
		}
	}
	JOINT joint_14
	{
		OFFSET -7.290000 -102.873990 -124.314940
		CHANNELS 3 Zrotation Yrotation Xrotation
		JOINT joint_15
		{
			OFFSET -15.466000 -19.909010 -438.533020
			CHANNELS 3 Zrotation Yrotation Xrotation
			JOINT joint_16
			{
				OFFSET -26.899000 -18.922000 -464.797000
				CHANNELS 3 Zrotation Yrotation Xrotation
				JOINT joint_17
				{
					OFFSET 179.329000 -12.011000 -84.174000
					CHANNELS 3 Zrotation Yrotation Xrotation
					End Site
					{
						OFFSET 0.000000 0.000000 0.000000
					}
				}
			}
		}
	}
	JOINT joint_18
	{
		OFFSET -6.225000 101.546000 -125.479980
		CHANNELS 3 Zrotation Yrotation Xrotation
		JOINT joint_19
		{
			OFFSET -13.973000 7.996000 -438.963010
			CHANNELS 3 Zrotation Yrotation Xrotation
			JOINT joint_20
			{
				OFFSET -44.294000 5.716000 -463.813970
				CHANNELS 3 Zrotation Yrotation Xrotation
				JOINT joint_21
				{
					OFFSET 178.505000 -4.689000 -85.139000
					CHANNELS 3 Zrotation Yrotation Xrotation
					End Site
					{
						OFFSET 0.000000 0.000000 0.000000
					}
				}
			}
		}
	}
}
MOTION
Frames: 10
Frame Time: 0.016667
267.923000 -110.165000 1149.880980 2.715793 5.236390 1.139136 -0.774983 9.699348 -1.650200 -1.996965 -1.828967 0.423319 -2.105488 1.702877 -0.144239 -0.560461 -1.045352 1.921726 0.000000 0.000000 0.000000 -1.145961 3.705970 1.930133 -0.522530 3.212400 -3.136861 0.094225 -3.617041 -2.715999 0.000000 0.000000 0.000000 -3.655935 2.633353 1.050373 0.267699 3.241239 -0.637683 -0.059546 0.159459 -0.596584 0.000000 0.000000 0.000000 -2.287974 -20.631029 -5.146886 -3.558556 42.864646 3.567523 -3.287701 3.450889 -1.045426 0.000000 0.000000 0.000000 1.615032 0.523327 0.868862 1.754106 9.764878 -0.199369 1.972696 5.742216 1.017075 0.000000 0.000000 0.000000 
284.726990 -110.726000 1150.349000 2.738053 5.556607 1.117401 -0.981400 9.983148 -1.814639 -2.239016 -1.923815 0.467844 -2.355488 1.809225 -0.158979 -0.585522 -0.309597 1.987555 0.000000 0.000000 0.000000 -1.577307 3.428959 2.065439 -0.543323 2.815400 -3.802565 0.553709 -5.481053 -1.475856 0.000000 0.000000 0.000000 -3.731167 2.617481 1.244253 0.253597 3.252856 -0.115691 -0.399947 -0.862499 -1.398544 0.000000 0.000000 0.000000 -3.105934 -22.631678 -4.870528 -4.417202 43.725538 3.687339 -5.096788 1.255487 -1.928912 0.000000 0.000000 0.000000 1.602732 0.905209 0.916360 1.698338 9.845198 -0.053186 1.955519 6.735326 1.028481 0.000000 0.000000 0.000000 
302.082000 -111.645000 1150.967040 2.499716 6.011106 0.974694 -1.214043 10.124199 -1.798503 -2.304124 -1.961823 0.467447 -2.398416 1.868280 -0.148601 -0.611070 0.211115 2.060526 0.000000 0.000000 0.000000 -1.879628 3.308371 2.142267 -0.547282 2.599157 -4.409405 1.061058 -7.685394 -0.261677 0.000000 0.000000 0.000000 -3.706572 2.481590 1.317795 0.265175 3.135415 0.427876 -0.644983 -1.673109 -1.937096 0.000000 0.000000 0.000000 -3.386077 -24.257622 -4.174584 -4.943906 41.950771 3.464021 -5.933147 -1.028166 -2.472476 0.000000 0.000000 0.000000 1.715449 1.365359 1.082914 1.768626 9.580316 0.054313 2.015123 7.904910 1.080375 0.000000 0.000000 0.000000 
319.932010 -112.889000 1151.649050 2.159881 6.551325 0.763893 -1.522195 10.225569 -1.683307 -2.269716 -2.007476 0.460619 -2.321611 1.892096 -0.116480 -0.634759 0.568442 2.131455 0.000000 0.000000 0.000000 -2.098125 3.314162 2.217379 -0.544068 2.514006 -5.094607 1.651790 -10.310405 1.064494 0.000000 0.000000 0.000000 -3.611599 2.261961 1.284756 0.293469 2.930261 1.041998 -0.843419 -2.387544 -2.350135 0.000000 0.000000 0.000000 -3.304311 -25.268672 -3.207362 -5.271163 37.329518 3.062341 -6.020538 -2.925989 -2.715975 0.000000 0.000000 0.000000 1.900566 1.932992 1.300525 1.927143 8.968647 0.168102 2.133461 9.259119 1.163755 0.000000 0.000000 0.000000 
338.428010 -114.403000 1151.890990 1.873462 7.077653 0.590740 -1.833559 10.347526 -1.559879 -2.229544 -2.052971 0.463062 -2.240610 1.898769 -0.081056 -0.644700 0.852028 2.158706 0.000000 0.000000 0.000000 -2.274552 3.330020 2.233071 -0.512953 2.463006 -5.551287 2.187109 -12.822387 2.078107 0.000000 0.000000 0.000000 -3.559694 2.046825 1.290709 0.312525 2.728388 1.500034 -1.007452 -3.088175 -2.587754 0.000000 0.000000 0.000000 -3.040677 -25.873001 -2.269572 -5.362105 31.551834 2.610849 -5.644207 -4.181556 -2.710510 0.000000 0.000000 0.000000 2.013798 2.512299 1.517842 2.041387 8.402841 0.249992 2.213242 10.650585 1.230586 0.000000 0.000000 0.000000 
357.665990 -116.162000 1151.437010 1.547704 7.685979 0.408181 -2.044104 10.264960 -1.328751 -2.171943 -1.966754 0.393505 -2.148938 1.902216 -0.060061 -0.637771 1.096606 2.129945 0.000000 0.000000 0.000000 -2.437362 3.294009 2.077388 -0.419991 2.414269 -5.407164 2.570797 -14.926060 2.393566 0.000000 0.000000 0.000000 -3.650631 1.897061 1.466783 0.303403 2.592038 1.593759 -1.135393 -3.818367 -2.562988 0.000000 0.000000 0.000000 -2.619585 -26.456590 -1.373552 -5.140462 25.555489 2.086761 -4.922878 -5.411519 -2.522183 0.000000 0.000000 0.000000 2.010614 2.928864 1.826002 2.062667 8.071675 0.214273 2.200824 11.964326 1.256148 0.000000 0.000000 0.000000 
377.586000 -118.187000 1150.480960 1.343650 8.284338 0.305895 -2.240721 10.222176 -1.123553 -2.150052 -1.883037 0.333449 -2.101071 1.890224 -0.040762 -0.621403 1.269133 2.068739 0.000000 0.000000 0.000000 -2.572948 3.254954 1.756361 -0.271934 2.412940 -4.763168 2.859004 -16.848674 2.170503 0.000000 0.000000 0.000000 -3.834377 1.780425 1.769185 0.272601 2.485129 1.398472 -1.224489 -4.541451 -2.299742 0.000000 0.000000 0.000000 -2.016026 -26.559877 -0.583826 -4.494561 18.138156 1.303782 -3.928494 -5.829414 -2.128291 0.000000 0.000000 0.000000 1.874938 3.338690 2.128486 1.956901 7.813100 0.117675 2.062305 13.330682 1.228781 0.000000 0.000000 0.000000 
398.221010 -120.427000 1148.675050 1.508359 8.534912 0.470080 -2.485508 10.615718 -1.178592 -2.240966 -1.994978 0.427495 -2.180064 1.876768 -0.012565 -0.587832 1.472672 1.954475 0.000000 0.000000 0.000000 -2.711621 3.163312 1.440454 -0.138889 2.359750 -4.147436 3.081242 -18.352635 1.922453 0.000000 0.000000 0.000000 -4.013051 1.667116 2.035616 0.238370 2.378707 1.165501 -1.303038 -5.265780 -1.996083 0.000000 0.000000 0.000000 -1.477315 -26.100765 -0.209222 -3.678772 11.230702 0.456086 -3.125620 -5.091146 -1.715757 0.000000 0.000000 0.000000 1.625905 3.897840 2.194936 1.727802 7.971481 0.120608 1.837353 14.664761 1.159907 0.000000 0.000000 0.000000 
419.691990 -122.827000 1145.811040 1.678447 8.518952 0.675319 -2.653557 11.119311 -1.179798 -2.317379 -2.157097 0.524414 -2.246448 1.897166 0.021308 -0.528248 1.773744 1.762021 0.000000 0.000000 0.000000 -2.866334 2.962173 1.247976 -0.071507 2.162277 -3.922397 3.250560 -19.244947 2.002721 0.000000 0.000000 0.000000 -4.130104 1.538634 2.107094 0.220729 2.261926 1.117357 -1.389565 -5.986585 -1.797894 0.000000 0.000000 0.000000 -1.042847 -25.674468 -0.014378 -3.000656 6.835138 -0.118281 -2.569387 -4.878322 -1.444632 0.000000 0.000000 0.000000 1.439575 4.511440 2.151123 1.559750 8.644342 0.267570 1.710536 15.904421 1.128504 0.000000 0.000000 0.000000 
441.985990 -125.408000 1142.026000 1.580653 8.470816 0.714643 -2.658813 11.386175 -0.844270 -2.280130 -2.210595 0.468420 -2.192679 1.954042 0.051564 -0.448310 2.137616 1.507266 0.000000 0.000000 0.000000 -3.028193 2.672444 1.111820 -0.043549 1.859720 -3.884974 3.354810 -19.630477 2.218487 0.000000 0.000000 0.000000 -4.228742 1.402227 2.028941 0.214361 2.144648 1.174840 -1.474079 -6.697243 -1.636010 0.000000 0.000000 0.000000 -0.550298 -25.456669 0.305764 -2.383436 4.223871 -0.499539 -2.016832 -5.924108 -1.266232 0.000000 0.000000 0.000000 1.369354 5.040141 2.207523 1.516432 9.679464 0.452325 1.719616 17.084587 1.153329 0.000000 0.000000 0.000000 
